<svg width="177" height="23" viewBox="0 0 177 23" fill="none" xmlns="http://www.w3.org/2000/svg">
<path d="M30.7246 7.0114C30.7434 7.03986 30.7753 7.05765 30.8094 7.05765H35.173C35.2471 7.05765 35.2962 6.9814 35.2628 6.91522C34.0751 4.56487 31.2308 0.207775 25.3564 0.51547C22.2157 0.732602 15.8597 3.03391 15.454 10.4935C15.4511 10.5468 15.4071 10.5904 15.3537 10.5904H0.433985C0.378756 10.5904 0.333984 10.6352 0.333984 10.6904V12.8456C0.333984 12.9008 0.378756 12.9456 0.433984 12.9456H22.4866C22.5312 12.9456 22.5703 12.9753 22.5838 13.0178C22.8266 13.7847 23.6546 15.273 25.2294 15.6279C26.055 15.9114 28.0111 16.0466 29.2305 14.3195C29.7166 13.3833 30.3968 11.1602 29.2361 9.74679C29.2324 9.74226 29.2291 9.7376 29.2262 9.73252C28.777 8.94585 27.3566 7.51724 25.2294 8.03897C24.521 8.21068 23.0167 8.94439 22.582 10.5146C22.5698 10.5588 22.5299 10.5904 22.484 10.5904H19.8811C19.8209 10.5904 19.7742 10.5385 19.7833 10.479C20.0206 8.93354 21.3139 5.87551 24.7848 5.16041C26.1929 4.90062 29.337 4.91165 30.7246 7.0114Z" fill="#B3B4B4"/>
<path d="M16.1559 15.7745C16.1232 15.7083 16.1699 15.6279 16.2436 15.6279H20.6095C20.6394 15.6279 20.667 15.6405 20.6862 15.6634C22.2306 17.5128 26.3448 20.2377 30.7263 16.6327C30.7443 16.6179 30.7674 16.6092 30.7907 16.6092H35.1752C35.2488 16.6092 35.2973 16.6855 35.2643 16.7512C32.2104 22.8304 21.3362 26.2397 16.1559 15.7745Z" fill="#B3B4B4"/>
<path d="M53.6885 2.15076V15.386C53.6885 16.9394 53.353 18.2445 52.6821 19.3015C52.0203 20.3585 51.1104 21.1581 49.9523 21.7004C48.7942 22.2335 47.4753 22.5 45.9955 22.5C44.4973 22.5 43.1646 22.2335 41.9973 21.7004C40.8392 21.1581 39.9293 20.3585 39.2675 19.3015C38.6058 18.2445 38.2749 16.9394 38.2749 15.386V2.15076H42.4523V15.386C42.4523 16.2592 42.5948 16.9761 42.8797 17.5368C43.1646 18.0883 43.569 18.4927 44.0929 18.75C44.626 19.0074 45.2602 19.136 45.9955 19.136C46.74 19.136 47.3742 19.0074 47.8981 18.75C48.422 18.4927 48.8218 18.0883 49.0975 17.5368C49.3732 16.9761 49.5111 16.2592 49.5111 15.386V2.15076H53.6885Z" fill="#B3B4B4"/>
<path d="M69.9982 22.2243H59.9339V18.8603H69.9982V22.2243ZM61.2299 22.2243H57.0525V2.15076H61.2299V22.2243Z" fill="#B3B4B4"/>
<path d="M78.4082 22.2243H74.2446V2.15076H78.4082V22.2243ZM84.5433 5.52851H68.1922V2.15076H84.5433V5.52851Z" fill="#B3B4B4"/>
<path d="M100.37 22.2243H89.7685V18.8603H100.37V22.2243ZM91.0782 22.2243H86.887V2.15076H91.0782V22.2243ZM98.978 13.5386H89.7685V10.2712H98.978V13.5386ZM100.329 5.52851H89.7685V2.15076H100.329V5.52851Z" fill="#B3B4B4"/>
<path d="M104.589 22.2243V18.8603H108.918C110.012 18.8603 110.927 18.6213 111.662 18.1434C112.406 17.6563 112.967 16.9531 113.344 16.034C113.73 15.1057 113.923 13.9752 113.923 12.6425V11.7188C113.923 10.3677 113.734 9.23256 113.358 8.31344C112.981 7.39432 112.42 6.70039 111.676 6.23164C110.94 5.76289 110.035 5.52851 108.96 5.52851H104.507V2.15076H108.96C110.77 2.15076 112.365 2.55517 113.744 3.36399C115.122 4.16362 116.198 5.28495 116.97 6.72796C117.751 8.16179 118.142 9.83458 118.142 11.7463V12.6425C118.142 14.5542 117.751 16.2316 116.97 17.6747C116.198 19.1085 115.118 20.2252 113.73 21.0248C112.351 21.8245 110.747 22.2243 108.918 22.2243H104.589ZM106.961 22.2243H102.769V2.15076H106.961V22.2243Z" fill="#B3B4B4"/>
<path d="M129.971 2.15076H132.259L132.714 4.8116L128.482 22.2243H126.028V19.2326L129.971 2.15076ZM127.241 19.2463L126.979 22.2243H124.291L119.837 2.15076H124.001L127.241 19.2463ZM139.47 2.15076H143.606L139.166 22.2243H136.478L136.257 19.1774L139.47 2.15076ZM137.471 19.3015L137.429 22.2243H134.975L130.743 4.78403L131.239 2.15076H133.5L137.471 19.3015Z" fill="#B3B4B4"/>
<path d="M159.323 22.2243H148.721V18.8603H159.323V22.2243ZM150.03 22.2243H145.839V2.15076H150.03V22.2243ZM157.93 13.5386H148.721V10.2712H157.93V13.5386ZM159.281 5.52851H148.721V2.15076H159.281V5.52851Z" fill="#B3B4B4"/>
<path d="M164.493 13.4697V10.5331H168.78C169.883 10.5331 170.701 10.3217 171.234 9.89892C171.777 9.47612 172.048 8.86491 172.048 8.06528C172.048 7.16454 171.786 6.51657 171.262 6.12134C170.738 5.72612 169.911 5.52851 168.78 5.52851H165.913V22.2243H161.722V2.15076H168.78C171.115 2.15076 172.939 2.60112 174.254 3.50186C175.568 4.3934 176.225 5.77668 176.225 7.65168C176.225 8.46969 176.032 9.23256 175.646 9.94028C175.269 10.648 174.681 11.2224 173.882 11.6636C173.082 12.0956 172.043 12.3346 170.766 12.3805L169.58 13.4697H164.493ZM163.321 22.2243L164.989 18.8603H169.415C170.481 18.8603 171.262 18.6167 171.758 18.1296C172.255 17.6333 172.503 17.0129 172.503 16.2684C172.503 15.6894 172.402 15.193 172.2 14.7794C172.007 14.3566 171.694 14.0349 171.262 13.8144C170.839 13.5846 170.279 13.4697 169.58 13.4697H165.582V10.5331H170.614L171.565 11.705C172.788 11.6774 173.771 11.8842 174.516 12.3254C175.26 12.7666 175.802 13.341 176.143 14.0487C176.492 14.7565 176.666 15.5101 176.666 16.3098C176.666 18.2583 176.037 19.7335 174.778 20.7353C173.528 21.728 171.74 22.2243 169.415 22.2243H163.321Z" fill="#B3B4B4"/>
</svg>
