<svg width="50" height="50" viewBox="0 0 50 50" fill="none" xmlns="http://www.w3.org/2000/svg">
<g filter="url(#filter0_bi_104_314)">
<rect width="50" height="50" rx="10" fill="#1D1D1D" fill-opacity="0.05"/>
<rect width="50" height="50" rx="10" fill="url(#paint0_linear_104_314)" fill-opacity="0.2"/>
<rect x="0.643229" y="0.643229" width="48.7135" height="48.7135" rx="9.35677" stroke="url(#paint1_linear_104_314)" stroke-opacity="0.1" stroke-width="1.28646"/>
<path d="M25.0012 21.25C22.9295 21.25 21.2512 22.9289 21.2512 25C21.2512 27.0716 22.9301 28.75 25.0012 28.75C27.0729 28.75 28.7512 27.0711 28.7512 25C28.7512 22.9284 27.0724 21.25 25.0012 21.25ZM25.0012 18.75C28.4517 18.75 31.2512 21.5464 31.2512 25C31.2512 28.4506 28.4549 31.25 25.0012 31.25C21.5506 31.25 18.7512 28.4536 18.7512 25C18.7512 21.5494 21.5476 18.75 25.0012 18.75ZM33.1262 18.4364C33.1262 19.2991 32.4252 19.999 31.5637 19.999C30.7011 19.999 30.0012 19.298 30.0012 18.4364C30.0012 17.5749 30.7021 16.875 31.5637 16.875C32.4241 16.8739 33.1262 17.5749 33.1262 18.4364ZM25.0012 15C21.9081 15 21.404 15.0082 19.9653 15.0723C18.9852 15.1183 18.3282 15.2501 17.7177 15.4871C17.1752 15.6975 16.7839 15.9487 16.3669 16.3657C15.9483 16.7843 15.6975 17.1745 15.488 17.7173C15.2504 18.3292 15.1187 18.9851 15.0735 19.9639C15.0088 21.344 15.0012 21.8263 15.0012 25C15.0012 28.0931 15.0094 28.5973 15.0735 30.0358C15.1195 31.0155 15.2515 31.6735 15.4879 32.2825C15.6989 32.8258 15.9506 33.218 16.3656 33.633C16.7858 34.0526 17.1772 34.3043 17.7148 34.5118C18.3327 34.7506 18.9893 34.8826 19.9651 34.9278C21.3452 34.9924 21.8275 35 25.0012 35C28.0944 35 28.5985 34.9918 30.037 34.9278C31.0146 34.8819 31.6731 34.7495 32.2837 34.5133C32.8255 34.3029 33.219 34.0503 33.6342 33.6356C34.0545 33.2148 34.3056 32.8243 34.5134 32.2854C34.7516 31.6698 34.8839 31.0123 34.929 30.0361C34.9936 28.656 35.0012 28.1736 35.0012 25C35.0012 21.9069 34.993 21.4028 34.929 19.9642C34.883 18.9863 34.7506 18.3269 34.5141 17.7165C34.3042 17.1755 34.0521 16.7829 33.6355 16.3657C33.2162 15.9464 32.827 15.6962 32.2839 15.4868C31.6725 15.2494 31.0155 15.1175 30.0372 15.0723C28.6572 15.0076 28.1749 15 25.0012 15ZM25.0012 12.5C28.397 12.5 28.821 12.5125 30.1544 12.575C31.4845 12.6365 32.3919 12.8469 33.1887 13.1563C34.0126 13.474 34.7085 13.9031 35.4032 14.5979C36.097 15.2927 36.5262 15.9906 36.845 16.8125C37.1532 17.6083 37.3637 18.5167 37.4262 19.8469C37.4856 21.1802 37.5012 21.6042 37.5012 25C37.5012 28.3959 37.4887 28.8198 37.4262 30.1531C37.3647 31.4834 37.1532 32.3906 36.845 33.1875C36.5272 34.0115 36.097 34.7073 35.4032 35.4021C34.7085 36.0959 34.0095 36.525 33.1887 36.8438C32.3919 37.1521 31.4845 37.3625 30.1544 37.425C28.821 37.4844 28.397 37.5 25.0012 37.5C21.6054 37.5 21.1814 37.4875 19.8481 37.425C18.5179 37.3635 17.6116 37.1521 16.8137 36.8438C15.9908 36.526 15.2939 36.0959 14.5991 35.4021C13.9043 34.7073 13.4762 34.0084 13.1575 33.1875C12.8481 32.3906 12.6387 31.4834 12.5762 30.1531C12.5168 28.8198 12.5012 28.3959 12.5012 25C12.5012 21.6042 12.5137 21.1802 12.5762 19.8469C12.6377 18.5156 12.8481 17.6094 13.1575 16.8125C13.4752 15.9896 13.9043 15.2927 14.5991 14.5979C15.2939 13.9031 15.9918 13.475 16.8137 13.1563C17.6106 12.8469 18.5168 12.6375 19.8481 12.575C21.1814 12.5156 21.6054 12.5 25.0012 12.5Z" fill="#54CBE4"/>
</g>
<defs>
<filter id="filter0_bi_104_314" x="-15.4375" y="-15.4375" width="80.875" height="80.875" filterUnits="userSpaceOnUse" color-interpolation-filters="sRGB">
<feFlood flood-opacity="0" result="BackgroundImageFix"/>
<feGaussianBlur in="BackgroundImageFix" stdDeviation="7.71875"/>
<feComposite in2="SourceAlpha" operator="in" result="effect1_backgroundBlur_104_314"/>
<feBlend mode="normal" in="SourceGraphic" in2="effect1_backgroundBlur_104_314" result="shape"/>
<feColorMatrix in="SourceAlpha" type="matrix" values="0 0 0 0 0 0 0 0 0 0 0 0 0 0 0 0 0 0 127 0" result="hardAlpha"/>
<feOffset dy="2.57292"/>
<feGaussianBlur stdDeviation="5.14583"/>
<feComposite in2="hardAlpha" operator="arithmetic" k2="-1" k3="1"/>
<feColorMatrix type="matrix" values="0 0 0 0 1 0 0 0 0 1 0 0 0 0 1 0 0 0 0.15 0"/>
<feBlend mode="normal" in2="shape" result="effect2_innerShadow_104_314"/>
</filter>
<linearGradient id="paint0_linear_104_314" x1="0" y1="0" x2="58.8985" y2="14.9554" gradientUnits="userSpaceOnUse">
<stop stop-color="#87FFE1"/>
<stop offset="0.776042" stop-color="#5C6DFF"/>
</linearGradient>
<linearGradient id="paint1_linear_104_314" x1="1.5625" y1="2.27273" x2="50" y2="2.27273" gradientUnits="userSpaceOnUse">
<stop stop-color="#3CDEB6"/>
<stop offset="0.65625" stop-color="#364AFF"/>
</linearGradient>
</defs>
</svg>
