<svg width="50" height="50" viewBox="0 0 50 50" fill="none" xmlns="http://www.w3.org/2000/svg">
<g filter="url(#filter0_bi_104_311)">
<rect width="50" height="50" rx="10" fill="#1D1D1D" fill-opacity="0.05"/>
<rect width="50" height="50" rx="10" fill="url(#paint0_linear_104_311)" fill-opacity="0.2"/>
<rect x="0.643229" y="0.643229" width="48.7135" height="48.7135" rx="9.35677" stroke="url(#paint1_linear_104_311)" stroke-opacity="0.1" stroke-width="1.28646"/>
<path d="M19.0673 33.118L19.9732 33.6463C21.4866 34.5288 23.2066 35 25.0015 35C30.5244 35 35.0015 30.5229 35.0015 25C35.0015 19.4772 30.5244 15 25.0015 15C19.4786 15 15.0015 19.4772 15.0015 25C15.0015 26.7954 15.473 28.516 16.3561 30.0298L16.884 30.9348L16.0672 33.9368L19.0673 33.118ZM12.5067 37.5L14.1966 31.2894C13.1189 29.442 12.5015 27.2931 12.5015 25C12.5015 18.0964 18.0979 12.5 25.0015 12.5C31.905 12.5 37.5015 18.0964 37.5015 25C37.5015 31.9035 31.905 37.5 25.0015 37.5C22.7091 37.5 20.5609 36.883 18.7138 35.8059L12.5067 37.5ZM20.4906 19.1354C20.658 19.1237 20.8259 19.1219 20.9935 19.13C21.0612 19.1345 21.1286 19.1423 21.196 19.1501C21.3951 19.1731 21.614 19.2943 21.6876 19.4612C22.0605 20.3067 22.4223 21.1571 22.773 22.012C22.8504 22.2008 22.8037 22.4454 22.6565 22.6821C22.5817 22.8035 22.4643 22.9738 22.3283 23.1479C22.187 23.3288 21.8827 23.6614 21.8827 23.6614C21.8827 23.6614 21.7595 23.8091 21.8059 23.993C21.824 24.0625 21.8818 24.1638 21.9341 24.2489C21.9631 24.296 21.99 24.3381 22.0075 24.3673C22.3274 24.9014 22.7574 25.4429 23.2826 25.952C23.4331 26.0979 23.5791 26.2468 23.7361 26.385C24.3215 26.9011 24.9837 27.3229 25.699 27.6353L25.7054 27.6381C25.811 27.6836 25.8652 27.7085 26.0199 27.7741C26.0979 27.8071 26.1776 27.8356 26.2595 27.8573C26.2891 27.865 26.3195 27.8694 26.35 27.8715C26.5521 27.8836 26.669 27.754 26.7189 27.6944C27.6232 26.5988 27.706 26.5273 27.7122 26.5278V26.5298C27.8311 26.4045 28.018 26.361 28.1847 26.3713C28.2609 26.3759 28.3366 26.3905 28.4059 26.4221C29.0706 26.7254 30.1575 27.1984 30.1575 27.1984L30.8844 27.5251C31.0061 27.5839 31.1172 27.7223 31.1226 27.8568C31.1259 27.9404 31.1349 28.0754 31.105 28.3224C31.0659 28.6458 30.9675 29.0351 30.8697 29.2391C30.801 29.3823 30.712 29.5093 30.6085 29.6168C30.4681 29.7625 30.3639 29.851 30.1951 29.9768C30.0924 30.0533 30.0391 30.0893 30.0391 30.0893C29.8655 30.1988 29.7676 30.2535 29.5607 30.3636C29.239 30.535 28.8835 30.6335 28.5194 30.6523C28.2872 30.6641 28.0557 30.6809 27.8239 30.6684C27.8136 30.6678 27.1136 30.5603 27.1136 30.5603C25.3362 30.0928 23.6925 29.217 22.3132 28.0025C22.0312 27.7543 21.7696 27.4856 21.5027 27.2199C20.3913 26.1135 19.55 24.9205 19.0399 23.792C18.7883 23.2355 18.629 22.6395 18.6265 22.0262C18.6219 21.2676 18.8702 20.529 19.3324 19.9273C19.4235 19.8087 19.5099 19.6857 19.6591 19.5448C19.8171 19.3956 19.9176 19.3156 20.026 19.2601C20.1703 19.1863 20.3289 19.1468 20.4906 19.1354Z" fill="#54CBE4"/>
</g>
<defs>
<filter id="filter0_bi_104_311" x="-15.4375" y="-15.4375" width="80.875" height="80.875" filterUnits="userSpaceOnUse" color-interpolation-filters="sRGB">
<feFlood flood-opacity="0" result="BackgroundImageFix"/>
<feGaussianBlur in="BackgroundImageFix" stdDeviation="7.71875"/>
<feComposite in2="SourceAlpha" operator="in" result="effect1_backgroundBlur_104_311"/>
<feBlend mode="normal" in="SourceGraphic" in2="effect1_backgroundBlur_104_311" result="shape"/>
<feColorMatrix in="SourceAlpha" type="matrix" values="0 0 0 0 0 0 0 0 0 0 0 0 0 0 0 0 0 0 127 0" result="hardAlpha"/>
<feOffset dy="2.57292"/>
<feGaussianBlur stdDeviation="5.14583"/>
<feComposite in2="hardAlpha" operator="arithmetic" k2="-1" k3="1"/>
<feColorMatrix type="matrix" values="0 0 0 0 1 0 0 0 0 1 0 0 0 0 1 0 0 0 0.15 0"/>
<feBlend mode="normal" in2="shape" result="effect2_innerShadow_104_311"/>
</filter>
<linearGradient id="paint0_linear_104_311" x1="0" y1="0" x2="58.8985" y2="14.9554" gradientUnits="userSpaceOnUse">
<stop stop-color="#87FFE1"/>
<stop offset="0.776042" stop-color="#5C6DFF"/>
</linearGradient>
<linearGradient id="paint1_linear_104_311" x1="1.5625" y1="2.27273" x2="50" y2="2.27273" gradientUnits="userSpaceOnUse">
<stop stop-color="#3CDEB6"/>
<stop offset="0.65625" stop-color="#364AFF"/>
</linearGradient>
</defs>
</svg>
