<svg width="50" height="50" viewBox="0 0 50 50" fill="none" xmlns="http://www.w3.org/2000/svg">
<g filter="url(#filter0_bi_104_338)">
<rect width="50" height="50" rx="10" fill="#1D1D1D" fill-opacity="0.05"/>
<rect width="50" height="50" rx="10" fill="url(#paint0_linear_104_338)" fill-opacity="0.2"/>
<rect x="0.643229" y="0.643229" width="48.7135" height="48.7135" rx="9.35677" stroke="url(#paint1_linear_104_338)" stroke-opacity="0.1" stroke-width="1.28646"/>
<path d="M23.0225 16.9916H16.43C14.8118 16.9916 13.5 18.3008 13.5 19.9159V33.0757C13.5 34.6908 14.8118 36 16.43 36H31.08C32.6982 36 34.01 34.6908 34.01 33.0757V26.4955" stroke="#54CBE4" stroke-width="2" stroke-linecap="round" stroke-linejoin="round"/>
<path fill-rule="evenodd" clip-rule="evenodd" d="M34.0099 15.4805C34.8229 16.3189 34.8119 17.6531 33.9853 18.4781L23.7549 28.6886L19.3599 30.1507L20.8249 25.7643L31.0615 15.4625C31.8641 14.6548 33.1708 14.6494 33.9801 15.4505C33.9902 15.4604 34.0001 15.4704 34.0099 15.4805Z" stroke="#54CBE4" stroke-width="2" stroke-linecap="round" stroke-linejoin="round"/>
<path d="M31.0806 18.4537L32.4767 19.9159" stroke="#54CBE4" stroke-width="2" stroke-linecap="round" stroke-linejoin="round"/>
</g>
<defs>
<filter id="filter0_bi_104_338" x="-15.4375" y="-15.4375" width="80.875" height="80.875" filterUnits="userSpaceOnUse" color-interpolation-filters="sRGB">
<feFlood flood-opacity="0" result="BackgroundImageFix"/>
<feGaussianBlur in="BackgroundImageFix" stdDeviation="7.71875"/>
<feComposite in2="SourceAlpha" operator="in" result="effect1_backgroundBlur_104_338"/>
<feBlend mode="normal" in="SourceGraphic" in2="effect1_backgroundBlur_104_338" result="shape"/>
<feColorMatrix in="SourceAlpha" type="matrix" values="0 0 0 0 0 0 0 0 0 0 0 0 0 0 0 0 0 0 127 0" result="hardAlpha"/>
<feOffset dy="2.57292"/>
<feGaussianBlur stdDeviation="5.14583"/>
<feComposite in2="hardAlpha" operator="arithmetic" k2="-1" k3="1"/>
<feColorMatrix type="matrix" values="0 0 0 0 1 0 0 0 0 1 0 0 0 0 1 0 0 0 0.15 0"/>
<feBlend mode="normal" in2="shape" result="effect2_innerShadow_104_338"/>
</filter>
<linearGradient id="paint0_linear_104_338" x1="0" y1="0" x2="58.8985" y2="14.9554" gradientUnits="userSpaceOnUse">
<stop stop-color="#87FFE1"/>
<stop offset="0.776042" stop-color="#5C6DFF"/>
</linearGradient>
<linearGradient id="paint1_linear_104_338" x1="1.5625" y1="2.27273" x2="50" y2="2.27273" gradientUnits="userSpaceOnUse">
<stop stop-color="#3CDEB6"/>
<stop offset="0.65625" stop-color="#364AFF"/>
</linearGradient>
</defs>
</svg>
